<svg width="50" height="50" viewBox="0 0 50 50" fill="none" xmlns="http://www.w3.org/2000/svg">
<path fill-rule="evenodd" clip-rule="evenodd" d="M40.0001 5C40.0001 7.76142 42.2386 10 45.0001 10C47.7615 10 50.0001 7.76142 50.0001 5C50.0001 2.23858 47.7615 0 45.0001 0C42.2386 0 40.0001 2.23858 40.0001 5ZM45.0001 30C42.2386 30 40.0001 27.7614 40.0001 25C40.0001 22.2386 42.2386 20 45.0001 20C47.7615 20 50.0001 22.2386 50.0001 25C50.0001 27.7614 47.7615 30 45.0001 30ZM45.0001 50C42.2386 50 40.0001 47.7614 40.0001 45C40.0001 42.2386 42.2386 40 45.0001 40C47.7615 40 50.0001 42.2386 50.0001 45C50.0001 47.7614 47.7615 50 45.0001 50ZM24.9999 50C22.2385 50 19.9999 47.7614 19.9999 45C19.9999 42.2386 22.2385 40 24.9999 40C27.7614 40 29.9999 42.2386 29.9999 45C29.9999 47.7614 27.7614 50 24.9999 50ZM19.9999 25C19.9999 27.7614 22.2385 30 24.9999 30C27.7614 30 29.9999 27.7614 29.9999 25C29.9999 22.2386 27.7614 20 24.9999 20C22.2385 20 19.9999 22.2386 19.9999 25ZM24.9999 10C22.2385 10 19.9999 7.76142 19.9999 5C19.9999 2.23858 22.2385 0 24.9999 0C27.7614 0 29.9999 2.23858 29.9999 5C29.9999 7.76142 27.7614 10 24.9999 10ZM0 45C0 47.7614 2.23858 50 5 50C7.76142 50 10 47.7614 10 45C10 42.2386 7.76142 40 5 40C2.23858 40 0 42.2386 0 45ZM5 30C2.23858 30 0 27.7614 0 25C0 22.2386 2.23858 20 5 20C7.76142 20 10 22.2386 10 25C10 27.7614 7.76142 30 5 30ZM0 5C0 7.76142 2.23858 10 5 10C7.76142 10 10 7.76142 10 5C10 2.23858 7.76142 0 5 0C2.23858 0 0 2.23858 0 5Z" fill="black"/>
</svg>
