<svg width="50" height="50" viewBox="0 0 50 50" fill="none" xmlns="http://www.w3.org/2000/svg">
<g id="24 / arrows / circle-chevron-right">
<path id="icon" fill-rule="evenodd" clip-rule="evenodd" d="M25 47.9167C12.3435 47.9167 2.08334 37.6565 2.08334 25C2.08334 12.3435 12.3435 2.08333 25 2.08333C37.6565 2.08333 47.9167 12.3435 47.9167 25C47.9167 37.6565 37.6565 47.9167 25 47.9167ZM25 43.75C35.3553 43.75 43.75 35.3553 43.75 25C43.75 14.6447 35.3553 6.25 25 6.25C14.6447 6.25 6.25001 14.6447 6.25001 25C6.25001 35.3553 14.6447 43.75 25 43.75ZM22.3065 15.1935L19.3602 18.1398L26.2204 25L19.3602 31.8602L22.3065 34.8065L32.113 25L22.3065 15.1935Z" fill="black"/>
</g>
</svg>
